<svg width="21" height="20" viewBox="0 0 21 20" fill="none" xmlns="http://www.w3.org/2000/svg">
<path d="M0.71967 0.219668C0.4534 0.485938 0.4292 0.902597 0.64705 1.19621L0.71967 1.28033L4.75424 5.3149C2.83225 6.66437 1.39577 8.6799 0.79888 11.0644C0.6983 11.4662 0.9425 11.8735 1.34431 11.9741C1.74613 12.0746 2.1534 11.8305 2.25399 11.4286C2.78346 9.3135 4.09112 7.53947 5.83416 6.39452L7.64379 8.2043C6.93628 8.9258 6.5 9.9143 6.5 11.0046C6.5 13.2138 8.29086 15.0046 10.5 15.0046C11.5904 15.0046 12.5788 14.5683 13.3004 13.8608L19.2197 19.7803C19.5126 20.0732 19.9874 20.0732 20.2803 19.7803C20.5466 19.5141 20.5708 19.0974 20.3529 18.8038L20.2803 18.7197L14.1668 12.6055L14.168 12.604L12.9679 11.4061L10.098 8.5368L10.1 8.536L7.21877 5.65782L7.22 5.656L6.08672 4.52549L1.78033 0.219668C1.48744 -0.0732225 1.01256 -0.0732225 0.71967 0.219668ZM8.7041 9.2655L12.2392 12.8006C11.7892 13.2364 11.1759 13.5046 10.5 13.5046C9.1193 13.5046 8 12.3853 8 11.0046C8 10.3287 8.26824 9.7154 8.7041 9.2655ZM10.5 3.5C9.4997 3.5 8.5291 3.64807 7.61109 3.925L8.8481 5.16119C9.3839 5.05532 9.9364 5 10.5 5C14.4231 5 17.8099 7.68026 18.7471 11.4332C18.8475 11.835 19.2546 12.0794 19.6565 11.9791C20.0584 11.8787 20.3028 11.4716 20.2024 11.0697C19.0994 6.65272 15.1155 3.5 10.5 3.5ZM10.6947 7.00928L14.496 10.81C14.3942 8.7531 12.7472 7.10764 10.6947 7.00928Z" fill="#212121"/>
</svg>
